<?xml version="1.0" encoding="UTF-8"?>
<!--Generator: Apple Native CoreSVG 175.5-->
<!DOCTYPE svg
PUBLIC "-//W3C//DTD SVG 1.1//EN"
       "http://www.w3.org/Graphics/SVG/1.1/DTD/svg11.dtd">
<svg version="1.1" xmlns="http://www.w3.org/2000/svg" xmlns:xlink="http://www.w3.org/1999/xlink" width="28.6523" height="50.8887">
 <g>
  <rect height="50.8887" opacity="0" width="28.6523" x="0" y="0"/>
  <path d="M28.6523 25.4297C28.6523 24.6973 28.3594 24.0234 27.8027 23.4961L4.59961 0.761719C4.07227 0.263672 3.42773 0 2.66602 0C1.17188 0 0 1.14258 0 2.66602C0 3.39844 0.292969 4.07227 0.761719 4.57031L22.0898 25.4297L0.761719 46.2891C0.292969 46.7871 0 47.4316 0 48.1934C0 49.7168 1.17188 50.8594 2.66602 50.8594C3.42773 50.8594 4.07227 50.5957 4.59961 50.0684L27.8027 27.3633C28.3594 26.8066 28.6523 26.1621 28.6523 25.4297Z" fill="#ffffff" fill-opacity="0.85"/>
 </g>
</svg>
