<?xml version="1.0" encoding="UTF-8"?>
<!--Generator: Apple Native CoreSVG 175.5-->
<!DOCTYPE svg
PUBLIC "-//W3C//DTD SVG 1.1//EN"
       "http://www.w3.org/Graphics/SVG/1.1/DTD/svg11.dtd">
<svg version="1.1" xmlns="http://www.w3.org/2000/svg" xmlns:xlink="http://www.w3.org/1999/xlink" width="64.6875" height="50.5371">
 <g>
  <rect height="50.5371" opacity="0" width="64.6875" x="0" y="0"/>
  <path d="M32.4023 28.6816C33.6035 28.6816 34.7168 28.125 36.0059 26.8359L61.4941 1.61133C60.4102 0.556641 58.3887 0.0585938 55.4883 0.0585938L8.32031 0.0585938C5.85938 0.0585938 4.13086 0.527344 3.16406 1.49414L28.7988 26.8359C30.0586 28.0957 31.1719 28.6816 32.4023 28.6816ZM0.732422 45.8203L21.4453 25.3418L0.673828 4.86328C0.234375 5.68359 0 7.08984 0 9.11133L0 41.4551C0 43.5352 0.234375 45 0.732422 45.8203ZM9.19922 50.5371L56.3672 50.5371C58.8281 50.5371 60.5273 50.0684 61.4941 49.1309L40.3711 28.2129L38.4375 30.1758C36.416 32.1094 34.5117 32.9883 32.4023 32.9883C30.2637 32.9883 28.3594 32.1094 26.3672 30.1758L24.4043 28.2129L3.33984 49.1016C4.45312 50.0684 6.38672 50.5371 9.19922 50.5371ZM63.9844 45.791C64.4531 44.9414 64.6875 43.5059 64.6875 41.4551L64.6875 9.11133C64.6875 7.14844 64.4531 5.74219 64.043 4.95117L43.3301 25.3418Z" fill="#ffffff" fill-opacity="0.85"/>
 </g>
</svg>
