<?xml version="1.0" encoding="UTF-8"?>
<!--Generator: Apple Native CoreSVG 175.5-->
<!DOCTYPE svg
PUBLIC "-//W3C//DTD SVG 1.1//EN"
       "http://www.w3.org/Graphics/SVG/1.1/DTD/svg11.dtd">
<svg version="1.1" xmlns="http://www.w3.org/2000/svg" xmlns:xlink="http://www.w3.org/1999/xlink" width="57.2461" height="57.8027">
 <g>
  <rect height="57.8027" opacity="0" width="57.2461" x="0" y="0"/>
  <path d="M0 23.3789C0 36.2695 10.4883 46.7578 23.3789 46.7578C28.4766 46.7578 33.1348 45.1172 36.9727 42.3633L51.3867 56.8066C52.0605 57.4805 52.9395 57.8027 53.877 57.8027C55.8691 57.8027 57.2461 56.3086 57.2461 54.3457C57.2461 53.4082 56.8945 52.5586 56.2793 51.9434L41.9531 37.5293C44.9707 33.6035 46.7578 28.7109 46.7578 23.3789C46.7578 10.4883 36.2695 0 23.3789 0C10.4883 0 0 10.4883 0 23.3789ZM5.00977 23.3789C5.00977 13.2422 13.2422 5.00977 23.3789 5.00977C33.5156 5.00977 41.748 13.2422 41.748 23.3789C41.748 33.5156 33.5156 41.748 23.3789 41.748C13.2422 41.748 5.00977 33.5156 5.00977 23.3789Z" fill="#5d5d5d"/>
 </g>
</svg>
