<?xml version="1.0" encoding="UTF-8"?>
<!--Generator: Apple Native CoreSVG 175.5-->
<!DOCTYPE svg
PUBLIC "-//W3C//DTD SVG 1.1//EN"
       "http://www.w3.org/Graphics/SVG/1.1/DTD/svg11.dtd">
<svg version="1.1" xmlns="http://www.w3.org/2000/svg" xmlns:xlink="http://www.w3.org/1999/xlink" width="66.4453" height="61.084">
 <g>
  <rect height="61.084" opacity="0" width="66.4453" x="0" y="0"/>
  <path d="M11.6016 61.084C15.1172 61.084 23.877 57.2461 28.8574 53.6719C29.3555 53.3203 29.7656 53.1738 30.1758 53.1738C30.5566 53.2031 30.9375 53.2324 31.3184 53.2324C52.4414 53.2324 66.4453 41.2207 66.4453 26.6309C66.4453 11.8945 51.6797 0 33.2227 0C14.7656 0 0 11.8945 0 26.6309C0 36.0059 5.77148 44.2383 15.1758 49.2773C15.6152 49.5117 15.7617 49.9512 15.5273 50.3906C13.8867 53.0859 10.957 56.3086 9.84375 57.7734C8.70117 59.2383 9.3457 61.084 11.6016 61.084Z" fill="#ffffff" fill-opacity="0.85"/>
 </g>
</svg>
