<?xml version="1.0" encoding="UTF-8"?>
<!--Generator: Apple Native CoreSVG 175.5-->
<!DOCTYPE svg
PUBLIC "-//W3C//DTD SVG 1.1//EN"
       "http://www.w3.org/Graphics/SVG/1.1/DTD/svg11.dtd">
<svg version="1.1" xmlns="http://www.w3.org/2000/svg" xmlns:xlink="http://www.w3.org/1999/xlink" width="59.7656" height="59.7949">
 <g>
  <rect height="59.7949" opacity="0" width="59.7656" x="0" y="0"/>
  <path d="M29.8828 59.7656C46.2305 59.7656 59.7656 46.2012 59.7656 29.8828C59.7656 13.5352 46.2012 0 29.8535 0C13.5352 0 0 13.5352 0 29.8828C0 46.2012 13.5645 59.7656 29.8828 59.7656ZM29.8535 55.3125C23.1445 55.3125 16.3477 52.5586 11.8652 47.7832C15.0293 42.8027 21.9141 39.873 29.8535 39.873C37.7344 39.873 44.6777 42.7441 47.8711 47.7832C43.3594 52.5586 36.5918 55.3125 29.8535 55.3125ZM29.8535 34.8926C24.2285 34.834 19.8047 30.1465 19.8047 23.8477C19.7754 17.9297 24.2578 13.0078 29.8535 13.0078C35.4785 13.0078 39.9023 17.9297 39.9023 23.8477C39.9023 30.1465 35.5078 34.9512 29.8535 34.8926Z" fill="#ffffff"/>
 </g>
</svg>
