<?xml version="1.0" encoding="UTF-8"?>
<!--Generator: Apple Native CoreSVG 175.5-->
<!DOCTYPE svg
PUBLIC "-//W3C//DTD SVG 1.1//EN"
       "http://www.w3.org/Graphics/SVG/1.1/DTD/svg11.dtd">
<svg version="1.1" xmlns="http://www.w3.org/2000/svg" xmlns:xlink="http://www.w3.org/1999/xlink" width="54.3164" height="56.5137">
 <g>
  <rect height="56.5137" opacity="0" width="54.3164" x="0" y="0"/>
  <path d="M14.8828 41.5137C23.3496 49.9805 33.6328 56.5137 42.041 56.5137C45.8203 56.5137 49.1309 55.1953 51.7969 52.2656C53.3496 50.5371 54.3164 48.5156 54.3164 46.5234C54.3164 45.0586 53.7598 43.6523 52.3828 42.6562L43.3887 36.2695C42.0117 35.332 40.8691 34.8633 39.8145 34.8633C38.4961 34.8633 37.2949 35.625 35.9473 36.9434L33.8672 38.9941C33.5449 39.3164 33.1348 39.4629 32.7539 39.4629C32.3145 39.4629 31.875 39.2871 31.582 39.1406C29.7656 38.1738 26.6602 35.5078 23.7598 32.6367C20.8887 29.7656 18.2227 26.6602 17.2852 24.8438C17.1387 24.5215 16.9629 24.1113 16.9629 23.6719C16.9629 23.291 17.0801 22.9102 17.4023 22.5879L19.4824 20.4492C20.7715 19.1016 21.5625 17.9297 21.5625 16.582C21.5625 15.5273 21.0645 14.3848 20.0977 13.0078L13.7988 4.13086C12.7734 2.72461 11.3379 2.10938 9.75586 2.10938C7.82227 2.10938 5.83008 2.98828 4.10156 4.6582C1.25977 7.38281 0 10.752 0 14.4727C0 22.8809 6.41602 33.0762 14.8828 41.5137Z" fill="#ffffff" fill-opacity="0.85"/>
 </g>
</svg>
