<?xml version="1.0" encoding="UTF-8"?>
<!--Generator: Apple Native CoreSVG 175.5-->
<!DOCTYPE svg
PUBLIC "-//W3C//DTD SVG 1.1//EN"
       "http://www.w3.org/Graphics/SVG/1.1/DTD/svg11.dtd">
<svg version="1.1" xmlns="http://www.w3.org/2000/svg" xmlns:xlink="http://www.w3.org/1999/xlink" width="59.7656" height="59.7949">
 <g>
  <rect height="59.7949" opacity="0" width="59.7656" x="0" y="0"/>
  <path d="M29.8828 59.7656C46.2305 59.7656 59.7656 46.2012 59.7656 29.8828C59.7656 13.5352 46.2012 0 29.8535 0C13.5352 0 0 13.5352 0 29.8828C0 46.2012 13.5645 59.7656 29.8828 59.7656Z" fill="#ffffff" fill-opacity="0.2125"/>
  <path d="M15.5859 29.9121C15.5859 28.3887 16.6406 27.334 18.1641 27.334L27.334 27.334L27.334 18.1641C27.334 16.6406 28.3594 15.5566 29.8535 15.5566C31.377 15.5566 32.4316 16.6406 32.4316 18.1641L32.4316 27.334L41.6309 27.334C43.125 27.334 44.209 28.3887 44.209 29.9121C44.209 31.4062 43.125 32.4023 41.6309 32.4023L32.4316 32.4023L32.4316 41.6016C32.4316 43.125 31.377 44.1797 29.8535 44.1797C28.3594 44.1797 27.334 43.0957 27.334 41.6016L27.334 32.4023L18.1641 32.4023C16.6406 32.4023 15.5859 31.4062 15.5859 29.9121Z" fill="#ffffff" fill-opacity="0.85"/>
 </g>
</svg>
