<?xml version="1.0" encoding="UTF-8"?>
<!--Generator: Apple Native CoreSVG 175.5-->
<!DOCTYPE svg
PUBLIC "-//W3C//DTD SVG 1.1//EN"
       "http://www.w3.org/Graphics/SVG/1.1/DTD/svg11.dtd">
<svg version="1.1" xmlns="http://www.w3.org/2000/svg" xmlns:xlink="http://www.w3.org/1999/xlink" width="71.9238" height="47.6074">
 <g>
  <rect height="47.6074" opacity="0" width="71.9238" x="0" y="0"/>
  <path d="M9.4043 47.5781L40.8691 47.5781C46.7578 47.5781 50.2734 44.1797 50.2734 38.291L50.2734 9.25781C50.2734 3.39844 47.0508 0 41.1621 0L9.4043 0C3.7793 0 0 3.39844 0 9.25781L0 38.291C0 44.1797 3.51562 47.5781 9.4043 47.5781ZM54.2578 32.4316L64.9219 41.6602C65.918 42.5391 67.0898 43.0957 68.1445 43.0957C70.4297 43.0957 71.9238 41.4258 71.9238 39.0234L71.9238 8.55469C71.9238 6.15234 70.4297 4.48242 68.1445 4.48242C67.0898 4.48242 65.918 5.03906 64.9219 5.91797L54.2578 15.1172Z" fill="#ffffff" fill-opacity="0.85"/>
 </g>
</svg>
